<svg width="20" height="20" viewBox="0 0 20 20" fill="none" xmlns="http://www.w3.org/2000/svg">
<path d="M10 0C4.47297 0 0 4.47254 0 10C0 15.5271 4.47254 20 10 20C15.527 20 20 15.5275 20 10C20 4.47293 15.5275 0 10 0ZM10 18.4375C5.33656 18.4375 1.5625 14.6638 1.5625 10C1.5625 5.33652 5.33621 1.5625 10 1.5625C14.6634 1.5625 18.4375 5.33621 18.4375 10C18.4375 14.6635 14.6638 18.4375 10 18.4375Z" fill="currentColor"/>
<path d="M13.4216 12.3166L11.1051 10.0001L13.4216 7.6836C13.7267 7.37852 13.7267 6.88387 13.4216 6.57875C13.1165 6.27364 12.6218 6.27367 12.3168 6.57875L10.0003 8.89524L7.68376 6.57875C7.37872 6.27364 6.88399 6.27364 6.57892 6.57875C6.27384 6.88387 6.27384 7.37852 6.57895 7.6836L8.89543 10.0001L6.57895 12.3166C6.27384 12.6217 6.2738 13.1163 6.57892 13.4214C6.88411 13.7266 7.37876 13.7265 7.68376 13.4214L10.0003 11.1049L12.3168 13.4214C12.6218 13.7265 13.1165 13.7265 13.4216 13.4214C13.7268 13.1163 13.7267 12.6216 13.4216 12.3166Z" fill="currentColor"/>
</svg>
